<?xml version="1.0" encoding="UTF-8"?>
<svg xmlns="http://www.w3.org/2000/svg" width="483" height="423" viewBox="0 0 483 423" fill="none">
  <g clip-path="url(#clip0_757_173)">
    <path d="M238.066 422.025C257.68 422.025 273.579 406.107 273.579 386.471C273.579 366.835 257.68 350.917 238.066 350.917C218.453 350.917 202.553 366.835 202.553 386.471C202.553 406.107 218.453 422.025 238.066 422.025Z" fill="#ECCE42"></path>
    <path d="M450.223 420.027C470.091 414.054 491.213 407.825 506.969 393.624C521.049 380.934 530.555 361.557 524.722 342.526C518.901 323.534 501.465 310.87 483.464 304.572C473.254 300.999 462.572 299.017 451.894 297.46C440.287 295.768 428.629 294.381 416.976 293.047C369.791 287.644 322.429 284.343 274.89 283.145C251.432 282.554 227.979 282.568 204.518 282.909C183.566 283.214 161.499 283.206 142.062 274.291C126.947 267.358 113.229 254.745 109.017 238.17C104.156 219.037 113.123 199.552 125.986 185.695C132.767 178.391 140.691 172.244 148.866 166.591C157.735 160.458 166.912 154.76 176.289 149.441C194.757 138.97 214.064 130.059 234.01 122.8C243.85 119.218 253.836 116.128 263.909 113.277C272.414 110.869 280.946 108.459 289.166 105.179C305.057 98.8379 320.172 88.0974 324.212 70.4892C328.041 53.8009 321.585 35.6844 310.265 23.287C297.17 8.94408 277.424 2.65659 258.494 1.63929C237.241 0.497193 216.478 5.82229 196.503 12.5805C175.197 19.7887 154.351 28.0768 132.596 33.9154C111.023 39.6994 89.0316 43.7919 66.8231 46.1557C55.9513 47.3146 44.7508 48.6233 33.8143 47.7361C24.6485 46.9924 15.5295 44.2937 8.77448 37.7812C2.98237 32.1971 -0.468044 24.5227 0.718199 16.4238C0.933662 14.9528 3.16569 15.5782 2.95154 17.0402C1.50755 26.8988 8.20123 35.9833 16.4497 40.6367C25.9828 46.0149 37.5831 46.0222 48.1966 45.4071C71.2098 44.0156 94.0671 40.7075 116.532 35.5172C138.606 30.4697 159.891 23.254 181.153 15.5459C201.346 8.22523 221.99 1.08023 243.563 -0.505399C262.282 -1.88124 281.973 0.848911 298.28 10.6424C312.612 19.2496 323.15 33.6035 326.508 50.075C329.79 66.1706 325.245 82.3711 313.075 93.6032C300.475 105.233 283.197 110.205 267.096 114.784C246.675 120.592 226.691 127.381 207.348 136.196C187.741 145.106 168.937 155.689 151.144 167.83C133.97 179.58 117.02 194.364 111.589 215.326C109.058 225.09 109.526 235.447 113.759 244.669C117.524 252.87 123.723 259.768 130.946 265.089C148.178 277.783 169.896 280.39 190.711 280.649C214.089 280.94 237.468 280.15 260.853 280.535C308.512 281.318 356.073 284.222 403.537 289.247C415.431 290.508 427.309 291.901 439.172 293.427C449.843 294.799 460.549 296.163 471.04 298.601C489.694 302.936 507.845 311.27 519.439 327.104C524.585 333.968 527.773 342.101 528.663 350.636C529.474 359.543 527.296 368.467 523.274 376.391C514.371 393.928 497.694 405.083 479.984 412.412C470.498 416.337 460.659 419.311 450.839 422.263C449.408 422.694 448.797 420.456 450.223 420.027Z" fill="#F2F2F2"></path>
    <path d="M2.21371 35.1823C12.4467 35.1823 20.7422 26.8772 20.7422 16.6324C20.7422 6.38759 12.4467 -1.91748 2.21371 -1.91748C-8.01932 -1.91748 -16.3148 6.38759 -16.3148 16.6324C-16.3148 26.8772 -8.01932 35.1823 2.21371 35.1823Z" fill="#F2F2F2"></path>
    <path d="M130.755 70.3498C140.988 70.3498 149.284 62.0447 149.284 51.7999C149.284 41.5551 140.988 33.25 130.755 33.25C120.522 33.25 112.227 41.5551 112.227 51.7999C112.227 62.0447 120.522 70.3498 130.755 70.3498Z" fill="#F2F2F2"></path>
    <path d="M239.61 0.0148277C249.843 0.0148277 258.139 -8.29024 258.139 -18.5351C258.139 -28.7799 249.843 -37.085 239.61 -37.085C229.377 -37.085 221.082 -28.7799 221.082 -18.5351C221.082 -8.29024 229.377 0.0148277 239.61 0.0148277Z" fill="#F2F2F2"></path>
    <path d="M307.548 78.852C317.781 78.852 326.077 70.5469 326.077 60.3021C326.077 50.0573 317.781 41.7522 307.548 41.7522C297.315 41.7522 289.02 50.0573 289.02 60.3021C289.02 70.5469 297.315 78.852 307.548 78.852Z" fill="#F2F2F2"></path>
    <path d="M215.678 170.055C225.911 170.055 234.206 161.75 234.206 151.505C234.206 141.261 225.911 132.956 215.678 132.956C205.445 132.956 197.149 141.261 197.149 151.505C197.149 161.75 205.445 170.055 215.678 170.055Z" fill="#F2F2F2"></path>
    <path d="M99.1024 214.112C109.335 214.112 117.631 205.807 117.631 195.562C117.631 185.317 109.335 177.012 99.1024 177.012C88.8694 177.012 80.5739 185.317 80.5739 195.562C80.5739 205.807 88.8694 214.112 99.1024 214.112Z" fill="#F2F2F2"></path>
    <path d="M222.626 282.901C232.859 282.901 241.154 274.595 241.154 264.351C241.154 254.106 232.859 245.801 222.626 245.801C212.393 245.801 204.097 254.106 204.097 264.351C204.097 274.595 212.393 282.901 222.626 282.901Z" fill="#F2F2F2"></path>
    <path d="M355.414 321.546C365.647 321.546 373.942 313.241 373.942 302.996C373.942 292.752 365.647 284.447 355.414 284.447C345.181 284.447 336.885 292.752 336.885 302.996C336.885 313.241 345.181 321.546 355.414 321.546Z" fill="#F2F2F2"></path>
    <path d="M234.262 15.4758C178.76 15.8683 133.316 61.0234 132.527 116.585C132.52 117.098 132.516 120.705 132.517 125.423C132.517 132.34 135.262 138.974 140.147 143.865C145.033 148.757 151.659 151.505 158.568 151.506C161.993 151.505 165.384 150.829 168.548 149.515C171.712 148.202 174.586 146.277 177.007 143.851C179.427 141.425 181.346 138.546 182.655 135.377C183.963 132.208 184.635 128.812 184.632 125.383C184.63 122.174 184.628 119.953 184.628 119.816C184.626 111.229 186.857 102.79 191.102 95.3277C195.346 87.8658 201.457 81.6385 208.835 77.2584C216.212 72.8783 224.602 70.4964 233.177 70.3468C241.753 70.1973 250.22 72.2854 257.745 76.4056C265.271 80.5258 271.595 86.5363 276.096 93.8458C280.598 101.155 283.121 109.512 283.418 118.094C283.715 126.676 281.775 135.187 277.79 142.791C273.804 150.395 267.91 156.829 260.688 161.46L260.697 161.471C260.697 161.471 223.618 185.369 212.314 218.153L212.323 218.156C210.335 224.872 209.328 231.84 209.333 238.845C209.333 241.724 209.502 266.918 209.829 287.366C209.943 294.422 212.823 301.15 217.848 306.098C222.873 311.047 229.639 313.819 236.688 313.817C240.229 313.817 243.736 313.116 247.006 311.754C250.276 310.392 253.244 308.396 255.741 305.881C258.237 303.366 260.212 300.382 261.552 297.1C262.892 293.818 263.571 290.303 263.549 286.757C263.436 268.03 263.374 246.224 263.374 244.642C263.374 224.511 282.772 204.454 298.705 191.375C317.053 176.313 330.256 155.787 335.559 132.634C336.732 127.867 337.379 122.986 337.488 118.077C337.488 104.541 334.813 91.138 329.616 78.6412C324.419 66.1445 316.804 54.8008 307.209 45.2636C297.613 35.7265 286.228 28.1845 273.709 23.0721C261.189 17.9597 247.783 15.378 234.262 15.4758Z" fill="#ECCE42"></path>
    <path d="M474.223 423H0.667491C0.490284 423 0.320514 422.938 0.195391 422.83C0.0702677 422.721 0 422.574 0 422.421C0 422.267 0.0702677 422.12 0.195391 422.011C0.320514 421.903 0.490284 421.842 0.667491 421.841H474.223C474.4 421.841 474.57 421.902 474.696 422.011C474.822 422.119 474.892 422.267 474.892 422.421C474.892 422.574 474.822 422.722 474.696 422.83C474.57 422.939 474.4 423 474.223 423Z" fill="#142D53"></path>
    <path d="M390.198 173.917C402.989 173.917 413.359 163.536 413.359 150.73C413.359 137.924 402.989 127.542 390.198 127.542C377.407 127.542 367.037 137.924 367.037 150.73C367.037 163.536 377.407 173.917 390.198 173.917Z" fill="#142D53"></path>
    <path d="M347.399 412.85H337.935L333.432 376.3H347.402L347.399 412.85Z" fill="#A0616A"></path>
    <path d="M331.174 410.142H349.428V421.648H319.681C319.681 420.137 319.978 418.641 320.556 417.245C321.134 415.849 321.98 414.581 323.047 413.512C324.115 412.444 325.382 411.596 326.776 411.018C328.17 410.44 329.665 410.142 331.174 410.142Z" fill="#142D53"></path>
    <path d="M420.741 412.85H411.277L406.774 376.3H420.744L420.741 412.85Z" fill="#A0616A"></path>
    <path d="M404.516 410.142H422.77V421.648H393.023C393.023 420.137 393.321 418.641 393.898 417.245C394.476 415.849 395.322 414.581 396.39 413.512C397.457 412.444 398.724 411.596 400.118 411.018C401.513 410.44 403.007 410.142 404.516 410.142Z" fill="#142D53"></path>
    <path d="M386.678 174.052C397.15 174.052 405.64 165.553 405.64 155.069C405.64 144.584 397.15 136.085 386.678 136.085C376.206 136.085 367.716 144.584 367.716 155.069C367.716 165.553 376.206 174.052 386.678 174.052Z" fill="#A0616A"></path>
    <path d="M397.98 235.294L406.464 215.778C408.525 211.2 409.115 206.094 408.154 201.165C407.193 196.237 404.728 191.728 401.099 188.262C400.353 187.524 399.562 186.835 398.729 186.198C394.542 182.92 389.383 181.133 384.068 181.12C380.494 181.134 376.966 181.92 373.723 183.424C373.445 183.547 373.175 183.679 372.897 183.81C372.364 184.065 371.839 184.343 371.33 184.629C368.006 186.54 365.178 189.206 363.072 192.412C360.967 195.618 359.643 199.274 359.209 203.087L355.464 234.498C354.523 236.963 320.924 326.003 332.675 393.98C332.8 394.706 333.153 395.373 333.684 395.884C334.214 396.394 334.894 396.721 335.624 396.817L347.536 398.44C348.406 398.559 349.288 398.344 350.006 397.838C350.724 397.331 351.223 396.572 351.404 395.712L371.391 300.327C371.516 299.734 371.835 299.2 372.299 298.811C372.762 298.421 373.342 298.198 373.947 298.178C374.551 298.157 375.145 298.34 375.634 298.698C376.122 299.055 376.477 299.566 376.641 300.149L404.882 400.457C405.083 401.186 405.517 401.829 406.118 402.287C406.719 402.745 407.454 402.993 408.209 402.993C408.434 402.991 408.659 402.97 408.881 402.931L423.433 400.125C424.279 399.967 425.036 399.498 425.554 398.81C426.073 398.122 426.316 397.265 426.236 396.407C424.097 372.532 412.733 252.939 397.98 235.294Z" fill="#142D53"></path>
    <path d="M312.988 170.867C312.857 171.996 312.974 173.139 313.332 174.218C313.689 175.296 314.279 176.283 315.059 177.108C315.838 177.934 316.79 178.578 317.845 178.996C318.9 179.414 320.035 179.595 321.167 179.526L331.766 205.026L339.784 193.128L328.49 170.737C328.249 168.839 327.321 167.096 325.881 165.837C324.442 164.579 322.592 163.893 320.681 163.909C318.771 163.925 316.932 164.642 315.514 165.924C314.096 167.207 313.198 168.966 312.988 170.867Z" fill="#A0616A"></path>
    <path d="M385.627 260.97C386.754 260.835 387.837 260.455 388.802 259.855C389.766 259.256 390.587 258.452 391.207 257.5C391.827 256.549 392.231 255.473 392.391 254.348C392.551 253.223 392.463 252.077 392.132 250.99L414.432 234.729L401.007 229.695L381.888 245.909C380.101 246.586 378.624 247.895 377.737 249.59C376.85 251.284 376.615 253.245 377.075 255.102C377.536 256.958 378.661 258.581 380.237 259.663C381.813 260.744 383.731 261.21 385.627 260.97Z" fill="#A0616A"></path>
    <path d="M349.274 222.027C348.419 222.026 347.566 221.942 346.727 221.775C344.699 221.389 342.796 220.509 341.188 219.213C339.579 217.917 338.314 216.244 337.503 214.343L322.654 196.216C322.34 195.832 322.112 195.387 321.984 194.908C321.856 194.429 321.832 193.928 321.913 193.439C321.995 192.95 322.179 192.484 322.455 192.073C322.731 191.661 323.091 191.313 323.512 191.052L334.076 184.505C334.467 184.263 334.901 184.101 335.353 184.028C335.806 183.955 336.269 183.973 336.715 184.08C337.162 184.187 337.582 184.382 337.953 184.652C338.323 184.923 338.637 185.264 338.875 185.657L349.341 202.919L369.383 188.09C370.979 187.252 372.823 187.017 374.577 187.428C376.332 187.838 377.88 188.867 378.94 190.327C379.999 191.786 380.499 193.578 380.347 195.376C380.196 197.173 379.403 198.856 378.115 200.117L358.11 218.386C355.76 220.719 352.583 222.028 349.274 222.027Z" fill="#142D53"></path>
    <path d="M403.431 249.289C403.404 249.289 403.377 249.29 403.349 249.289C402.862 249.277 402.383 249.163 401.943 248.954C401.502 248.745 401.111 248.445 400.793 248.075L391.401 237.105C391.081 236.731 390.844 236.294 390.705 235.822C390.567 235.35 390.53 234.853 390.597 234.366C390.664 233.878 390.834 233.411 391.095 232.994C391.356 232.577 391.702 232.22 392.111 231.947L409.699 220.209L393.766 201.031C392.839 199.484 392.499 197.655 392.808 195.877C393.117 194.1 394.054 192.494 395.449 191.351C396.843 190.209 398.602 189.607 400.403 189.655C402.204 189.703 403.928 190.399 405.259 191.615L424.624 210.561C426.148 211.955 427.312 213.698 428.015 215.641C428.718 217.584 428.939 219.669 428.66 221.717C428.381 223.765 427.61 225.714 426.413 227.398C425.216 229.082 423.628 230.449 421.787 231.383L405.959 248.197C405.634 248.542 405.242 248.817 404.808 249.004C404.373 249.192 403.905 249.289 403.431 249.289Z" fill="#142D53"></path>
    <path d="M381.857 208.867C381.706 208.867 381.556 208.857 381.406 208.838C380.752 208.759 380.134 208.493 379.627 208.072C379.119 207.652 378.742 207.095 378.541 206.466L371.483 184.802C371.307 184.254 371.334 183.661 371.56 183.132C371.786 182.603 372.196 182.173 372.714 181.923L372.943 181.815C373.151 181.716 373.356 181.618 373.566 181.525C376.858 179.997 380.44 179.2 384.068 179.188C388.778 179.197 393.383 180.582 397.317 183.174C397.845 183.525 398.213 184.07 398.343 184.691C398.473 185.312 398.355 185.959 398.013 186.493L384.773 207.26C384.462 207.753 384.032 208.159 383.522 208.44C383.012 208.721 382.439 208.868 381.857 208.867Z" fill="#E6E6E6"></path>
    <path d="M408.458 140.378C412.644 140.378 416.037 136.981 416.037 132.79C416.037 128.6 412.644 125.203 408.458 125.203C404.272 125.203 400.879 128.6 400.879 132.79C400.879 136.981 404.272 140.378 408.458 140.378Z" fill="#142D53"></path>
    <path d="M382.478 124.451C377.154 124.451 372.048 126.568 368.284 130.337C364.52 134.105 362.405 139.217 362.405 144.546V153.048H372.85L377.845 144.546L379.344 153.048H411.042L402.55 144.546C402.55 139.217 400.435 134.105 396.671 130.337C392.907 126.568 387.801 124.451 382.478 124.451Z" fill="#142D53"></path>
    <path d="M412.353 127.593C413.191 124.97 414.927 122.726 417.254 121.256C419.581 119.787 422.351 119.186 425.077 119.558C429.907 120.367 433.725 124.254 436 128.595C438.276 132.936 439.326 137.794 440.856 142.451C442.386 147.108 444.555 151.791 448.416 154.806C452.278 157.82 458.204 158.638 461.996 155.537C461.563 158.769 460.126 161.783 457.888 164.152C455.65 166.521 452.724 168.127 449.525 168.74C446.326 169.354 443.016 168.945 440.061 167.572C437.107 166.198 434.659 163.93 433.063 161.087C431.062 157.523 430.545 153.345 429.952 149.3C429.358 145.254 428.587 141.068 426.198 137.752C423.809 134.436 419.337 132.27 415.541 133.78L412.353 127.593Z" fill="#142D53"></path>
    <path d="M165.924 139.169C159.015 139.168 152.389 136.42 147.503 131.528C142.618 126.637 139.873 120.003 139.873 113.086C139.872 108.368 139.876 104.761 139.883 104.248C140.102 88.0893 144.167 72.2157 151.74 57.9441C139.298 74.9968 132.457 95.4992 132.163 116.615C132.155 117.128 132.152 120.735 132.152 125.453C132.153 132.37 134.898 139.003 139.783 143.895C144.668 148.786 151.294 151.534 158.204 151.535C163.881 151.533 169.403 149.676 173.93 146.245C178.456 142.815 181.741 137.999 183.285 132.529C178.515 136.811 172.331 139.176 165.924 139.169Z" fill="#142D53"></path>
    <path d="M236.028 70.4342C244.016 70.8161 251.791 73.1331 258.687 77.1863C265.583 81.2395 271.394 86.9077 275.62 93.7042C279.846 100.501 282.361 108.223 282.949 116.207C283.538 124.191 282.182 132.199 278.998 139.543C283.603 134.128 286.988 127.783 288.922 120.94C290.855 114.097 291.293 106.918 290.203 99.8902C289.114 92.8629 286.524 86.1533 282.61 80.2189C278.696 74.2845 273.55 69.2648 267.522 65.5021C261.495 61.7393 254.728 59.3219 247.683 58.4148C240.638 57.5077 233.48 58.1321 226.697 60.2455C219.915 62.3589 213.668 65.9116 208.381 70.6613C203.095 75.4111 198.893 81.2462 196.063 87.7689C200.954 82.0087 207.101 77.45 214.03 74.4445C220.96 71.439 228.486 70.067 236.028 70.4342Z" fill="#142D53"></path>
    <path d="M244.043 301.48C236.995 301.482 230.229 298.71 225.204 293.761C220.179 288.813 217.299 282.085 217.185 275.03C216.858 254.581 216.688 229.387 216.688 226.508C216.684 219.503 217.691 212.535 219.679 205.819L219.67 205.816C220.843 202.445 222.261 199.164 223.911 196C218.845 202.758 214.814 210.235 211.949 218.183L211.959 218.185C209.971 224.901 208.964 231.87 208.968 238.875C208.968 241.754 209.138 266.948 209.464 287.396C209.579 294.452 212.459 301.179 217.484 306.128C222.508 311.076 229.275 313.849 236.323 313.847C242.134 313.846 247.789 311.959 252.438 308.468C257.088 304.977 260.481 300.072 262.11 294.487C257.171 298.995 250.727 301.49 244.043 301.48Z" fill="#142D53"></path>
    <path d="M86.8915 413.202L96.3557 413.202L100.859 376.652L86.8892 376.653L86.8915 413.202Z" fill="#FFB8B8"></path>
    <path d="M114.61 422L84.8634 422.001L84.8629 410.495L103.116 410.494C106.165 410.494 109.088 411.706 111.243 413.864C113.399 416.022 114.61 418.948 114.61 422Z" fill="#142D53"></path>
    <path d="M52.9226 413.202L62.3868 413.202L66.89 376.652L52.9203 376.653L52.9226 413.202Z" fill="#FFB8B8"></path>
    <path d="M80.6411 422L50.8946 422.001L50.894 410.495L69.1476 410.494C72.1957 410.494 75.1191 411.706 77.2745 413.864C79.43 416.022 80.641 418.948 80.6411 422Z" fill="#142D53"></path>
    <path d="M61.1935 401.961L51.9485 401.475C51.4718 401.45 51.0048 401.33 50.5746 401.123C50.1444 400.916 49.7595 400.625 49.4422 400.268C49.1249 399.911 48.8815 399.495 48.7262 399.043C48.5709 398.591 48.5067 398.112 48.5373 397.636L59.587 275.155L110.472 288.902L115.374 287.563L100.043 395.991C99.9126 396.806 99.5081 397.553 98.8963 398.107C98.2846 398.662 97.5023 398.991 96.6787 399.04L86.7127 399.505C86.2144 399.532 85.7157 399.456 85.2483 399.281C84.7808 399.106 84.3547 398.836 83.9969 398.487C83.6391 398.139 83.3574 397.72 83.1695 397.257C82.9817 396.794 82.8917 396.297 82.9055 395.798L84.7112 330.722C84.7197 330.421 84.6153 330.127 84.4185 329.9C84.2218 329.672 83.947 329.526 83.6483 329.492C83.3497 329.457 83.0488 329.535 82.8049 329.711C82.5611 329.887 82.392 330.148 82.3309 330.443L64.9165 399.087C64.7521 399.902 64.3107 400.634 63.6674 401.159C63.0242 401.684 62.219 401.97 61.389 401.967C61.3243 401.967 61.2591 401.965 61.1935 401.961Z" fill="#142D53"></path>
    <path d="M88.5907 174.94C99.0629 174.94 107.552 166.441 107.552 155.957C107.552 145.472 99.0629 136.973 88.5907 136.973C78.1184 136.973 69.629 145.472 69.629 155.957C69.629 166.441 78.1184 174.94 88.5907 174.94Z" fill="#FFB8B8"></path>
    <path d="M57.0212 211.729L59.106 256.765L59.8597 273.149C59.8898 273.863 60.1317 274.551 60.5545 275.126C60.9773 275.701 61.5618 276.136 62.2332 276.377L111.13 294.11C111.525 294.257 111.943 294.33 112.365 294.327C112.846 294.329 113.324 294.234 113.768 294.048C114.212 293.861 114.614 293.587 114.95 293.242C115.286 292.896 115.549 292.487 115.724 292.037C115.898 291.588 115.98 291.108 115.965 290.626L113.961 209.65C113.829 203.006 111.386 196.617 107.054 191.583C102.721 186.549 96.7696 183.187 90.2259 182.075C89.7529 182.002 89.2717 181.93 88.7905 181.866C84.7329 181.362 80.6141 181.754 76.7241 183.014C72.8341 184.275 69.2672 186.374 66.2745 189.163C63.1756 192.017 60.7406 195.517 59.1417 199.416C57.5427 203.315 56.8188 207.519 57.0212 211.729Z" fill="#CCCCCC"></path>
    <path d="M134.488 285.124C133.331 284.764 132.275 284.139 131.402 283.299C130.53 282.458 129.866 281.425 129.463 280.281C129.06 279.138 128.93 277.916 129.083 276.714C129.236 275.511 129.667 274.361 130.343 273.355L113.761 251.28L128.07 250.394L141.623 271.492C143.073 272.615 144.083 274.214 144.474 276.007C144.865 277.801 144.613 279.675 143.762 281.302C142.911 282.928 141.515 284.202 139.819 284.901C138.123 285.6 136.236 285.679 134.488 285.124Z" fill="#FFB8B8"></path>
    <path d="M122.829 269.36C122.39 269.182 121.99 268.918 121.654 268.584C121.317 268.249 121.05 267.852 120.867 267.414L95.8861 207.826C95.3959 206.66 95.1402 205.408 95.1336 204.142C95.1269 202.877 95.3694 201.622 95.8473 200.45C96.3251 199.278 97.029 198.212 97.9185 197.313C98.8081 196.414 99.8659 195.699 101.032 195.209C102.197 194.719 103.448 194.464 104.712 194.458C105.976 194.453 107.229 194.696 108.399 195.176C109.569 195.655 110.634 196.361 111.531 197.252C112.429 198.143 113.142 199.203 113.631 200.37L138.612 259.958C138.981 260.842 138.985 261.836 138.623 262.722C138.261 263.609 137.563 264.315 136.681 264.687L125.591 269.347C125.154 269.532 124.685 269.628 124.211 269.631C123.737 269.633 123.268 269.541 122.829 269.36Z" fill="#CCCCCC"></path>
    <path d="M82.4945 267.258L106.488 221.263C106.951 220.379 107.745 219.714 108.697 219.415C109.649 219.116 110.68 219.207 111.564 219.668L146.391 237.878C147.275 238.341 147.939 239.137 148.238 240.089C148.536 241.042 148.445 242.074 147.984 242.96L123.991 288.955C123.528 289.84 122.734 290.504 121.782 290.803C120.83 291.102 119.799 291.011 118.915 290.55L84.0875 272.34C83.204 271.877 82.5401 271.082 82.2414 270.129C81.9428 269.176 82.0338 268.144 82.4945 267.258Z" fill="#142D53"></path>
    <path d="M98.5857 246.244C98.1591 245.11 97.4736 244.09 96.5838 243.268C95.6939 242.446 94.6245 241.843 93.4607 241.509C92.2969 241.174 91.0711 241.116 89.881 241.339C88.6909 241.563 87.5694 242.062 86.6062 242.797L63.6166 227.529L63.5775 241.881L85.4148 254.18C86.6203 255.563 88.2738 256.478 90.0855 256.763C91.8972 257.048 93.7513 256.686 95.3226 255.739C96.8939 254.792 98.0821 253.322 98.6788 251.586C99.2755 249.849 99.2425 247.958 98.5857 246.244Z" fill="#FFB8B8"></path>
    <path d="M69.519 249.472L50.7305 234.572C48.698 233.889 46.8614 232.722 45.3784 231.172C43.8955 229.621 42.8104 227.734 42.2165 225.671C41.6225 223.609 41.5373 221.433 41.9683 219.33C42.3992 217.227 43.3334 215.261 44.6907 213.599L61.7501 191.216C62.9356 189.765 64.6029 188.791 66.4471 188.47C68.2913 188.149 70.1894 188.503 71.7942 189.467C73.3991 190.432 74.6036 191.943 75.1876 193.723C75.7715 195.504 75.6959 197.435 74.9746 199.165L61.4767 221.27L81.313 230.689C81.7743 230.908 82.1839 231.223 82.5147 231.612C82.8456 232.001 83.0902 232.456 83.2323 232.947C83.3745 233.438 83.411 233.954 83.3394 234.46C83.2678 234.966 83.0897 235.451 82.817 235.883L74.8098 248.57C74.5391 248.998 74.1816 249.364 73.7605 249.645C73.3393 249.926 72.8639 250.116 72.365 250.201C72.3452 250.205 72.3253 250.208 72.3053 250.211C71.8151 250.285 71.3149 250.258 70.8357 250.131C70.3564 250.003 69.9083 249.779 69.519 249.472Z" fill="#CCCCCC"></path>
    <path d="M74.2629 168.669C74.1815 168.43 74.1557 168.176 74.1874 167.927C74.2192 167.677 74.3076 167.438 74.4459 167.227C74.5842 167.017 74.7688 166.841 74.9855 166.713C75.2022 166.585 75.4452 166.509 75.696 166.49C76.2096 166.518 76.7122 166.649 77.1734 166.877C77.6346 167.105 78.045 167.424 78.3796 167.815C79.0659 168.607 79.8648 169.294 80.7506 169.853C81.6679 170.316 82.9119 170.25 83.4348 169.368C83.9259 168.539 83.5894 167.429 83.2922 166.467C82.5357 164.018 82.1125 161.478 82.0338 158.915C81.9482 156.055 82.3512 153.071 83.9328 150.84C85.9739 147.961 89.6237 146.868 93.0777 146.947C96.5318 147.027 99.9298 148.094 103.351 148.769C104.532 149.002 105.921 149.121 106.711 148.204C107.551 147.23 107.242 145.653 106.885 144.337C105.958 140.923 104.974 137.393 102.82 134.635C100.491 131.77 97.1636 129.895 93.5087 129.387C89.9997 128.952 86.4377 129.357 83.1155 130.568C77.7027 132.276 72.9399 135.598 69.4639 140.089C65.8807 144.866 64.3324 150.868 65.1575 156.784C65.9636 161.937 68.6909 166.592 72.7896 169.812L74.2629 168.669Z" fill="#142D53"></path>
    <path d="M230.242 413.353C225.197 411.153 220.732 407.81 217.199 403.586C213.666 399.363 211.161 394.375 209.883 389.017C208.605 383.659 208.589 378.077 209.835 372.711C211.081 367.345 213.555 362.342 217.063 358.098C212.996 361.071 209.607 364.876 207.121 369.261C204.635 373.645 203.109 378.509 202.644 383.529C202.179 388.549 202.786 393.61 204.425 398.378C206.063 403.145 208.695 407.509 212.147 411.18C215.599 414.851 219.791 417.745 224.446 419.67C229.1 421.594 234.11 422.506 239.143 422.344C244.176 422.183 249.118 420.951 253.639 418.731C258.16 416.511 262.158 413.354 265.368 409.469C260.362 413.132 254.485 415.418 248.322 416.099C242.159 416.781 235.926 415.834 230.242 413.353Z" fill="#142D53"></path>
  </g>
  <defs>
    <clipPath id="clip0_757_173">
      <rect width="483" height="423" fill="white"></rect>
    </clipPath>
  </defs>
</svg>
